<?xml version="1.0" standalone="no"?>
<!DOCTYPE svg PUBLIC "-//W3C//DTD SVG 20010904//EN"
 "http://www.w3.org/TR/2001/REC-SVG-20010904/DTD/svg10.dtd">
<svg version="1.0" xmlns="http://www.w3.org/2000/svg"
 width="300.000000pt" height="300.000000pt" viewBox="0 0 1080.000000 1080.000000"
 preserveAspectRatio="xMidYMid meet">

<g transform="translate(0.000000,1080.000000) scale(0.100000,-0.100000)"
fill="#000000" stroke="none">
<path d="M8678 6613 c-114 -115 -243 -245 -287 -290 l-81 -83 0 -545 c0 -300
4 -545 8 -545 4 0 31 24 59 53 l52 52 3 478 3 478 130 127 c215 209 312 302
316 302 2 0 2 -250 1 -555 -2 -314 0 -555 5 -555 5 0 34 9 66 20 72 25 89 25
57 -1 -14 -12 -47 -40 -75 -64 -75 -64 -585 -487 -705 -585 -58 -47 -122 -100
-142 -119 -21 -19 -48 -41 -60 -49 -13 -9 -25 -18 -28 -21 -3 -4 -34 -31 -69
-61 l-65 -55 60 -5 59 -5 0 -255 0 -255 56 -3 56 -3 6 68 c4 37 7 159 7 269
l0 201 133 110 c227 189 581 484 614 514 18 16 35 29 38 29 3 0 5 -268 5 -595
0 -471 3 -595 13 -595 6 0 28 5 47 10 33 10 137 38 221 61 l37 9 7 404 7 403
62 53 c65 56 127 110 267 234 48 42 90 76 94 76 9 0 107 -80 146 -119 14 -14
41 -39 60 -55 18 -16 56 -49 82 -74 27 -24 51 -42 54 -39 5 6 -138 223 -280
424 l-37 53 0 317 0 318 -208 177 c-114 98 -290 250 -392 338 -102 87 -188
159 -191 160 -3 0 -98 -93 -211 -207z"/>
<path d="M1945 5864 c-144 -23 -327 -122 -440 -239 -71 -73 -144 -194 -183
-300 -55 -152 -56 -433 -1 -580 82 -218 235 -391 419 -472 30 -13 64 -28 75
-33 84 -38 307 -52 435 -26 95 19 263 96 320 147 19 17 39 34 45 37 29 19 136
155 168 212 114 208 135 484 56 719 -44 129 -96 209 -211 323 -82 81 -179 140
-295 180 -77 26 -104 30 -223 33 -74 2 -148 1 -165 -1z m287 -265 c99 -33 149
-63 210 -126 85 -86 113 -130 148 -234 45 -129 50 -224 20 -344 -33 -134 -76
-209 -171 -303 -60 -59 -135 -104 -214 -127 -66 -19 -212 -19 -282 -1 -138 37
-283 164 -350 306 -46 97 -64 254 -43 380 24 151 127 311 251 391 123 79 299
103 431 58z"/>
<path d="M954 5811 c-56 -25 -129 -58 -163 -73 -57 -25 -62 -29 -59 -55 2 -17
12 -32 28 -40 60 -30 266 -119 303 -130 13 -4 17 1 17 21 0 20 -8 30 -37 43
l-38 18 -3 87 -3 86 38 18 c28 14 38 25 38 43 0 13 -4 25 -10 27 -5 1 -55 -19
-111 -45z m-4 -131 l0 -59 -39 14 c-21 7 -54 21 -72 30 l-33 17 55 28 c83 43
89 41 89 -30z"/>
<path d="M3220 5021 l0 -812 123 3 122 3 3 273 2 272 173 0 172 0 92 -138 c50
-75 111 -166 135 -202 25 -36 62 -92 83 -125 22 -33 46 -66 54 -72 15 -13 301
-19 314 -7 5 6 -52 93 -285 432 -54 78 -98 144 -98 147 0 2 34 21 75 41 169
82 245 231 245 478 0 292 -105 428 -380 493 -51 13 -148 17 -447 20 l-383 5 0
-811z m803 540 c41 -13 101 -61 119 -95 38 -68 39 -234 3 -320 -19 -45 -85
-101 -138 -116 -26 -8 -135 -14 -289 -17 l-248 -5 0 287 0 286 258 -4 c165 -2
271 -8 295 -16z"/>
<path d="M4652 5708 l3 -123 25 -2 c14 0 116 -1 228 -2 l202 -1 0 -685 0 -686
128 3 127 3 3 683 2 682 33 0 c17 0 120 2 227 3 l195 2 3 123 3 122 -591 0
-591 0 3 -122z"/>
<path d="M6115 5818 c-3 -7 -4 -371 -3 -808 l3 -795 125 0 125 0 0 805 0 805
-123 3 c-92 2 -124 -1 -127 -10z"/>
<path d="M6722 5708 l3 -123 420 -2 c231 -1 421 -6 422 -10 2 -4 -20 -37 -47
-73 -49 -64 -126 -163 -252 -326 -35 -45 -118 -153 -186 -240 -138 -179 -189
-245 -214 -277 -10 -12 -54 -69 -98 -126 l-81 -104 3 -106 3 -106 625 0 625 0
3 123 3 122 -451 0 c-247 0 -450 4 -450 9 0 4 14 26 31 47 58 74 228 295 307
398 20 27 57 74 82 104 25 31 59 75 75 98 17 23 63 84 104 135 40 52 83 108
96 124 13 17 50 64 82 105 109 139 103 125 103 244 l0 106 -605 0 -606 0 3
-122z"/>
<path d="M755 5466 c-51 -78 -36 -179 35 -239 115 -97 290 -18 290 131 0 56
-30 132 -53 132 -31 0 -36 -22 -15 -65 67 -138 -108 -251 -207 -133 -32 37
-34 110 -5 148 13 18 16 28 8 37 -16 20 -36 16 -53 -11z"/>
<path d="M9604 5132 c-38 -32 -89 -73 -114 -92 -25 -19 -47 -37 -50 -40 -3 -3
-34 -30 -69 -60 l-63 -54 7 -335 c4 -185 9 -339 11 -343 2 -3 32 5 67 18 34
14 112 43 172 66 61 23 112 43 115 45 3 3 7 167 10 366 l5 361 140 -124 c77
-68 147 -130 155 -139 12 -12 16 -51 18 -198 2 -101 6 -183 8 -183 3 0 16 7
29 16 l25 16 0 208 0 208 -62 54 c-35 29 -119 101 -187 161 -68 59 -129 107
-135 107 -7 0 -43 -26 -82 -58z"/>
<path d="M734 5115 c-4 -8 -4 -22 0 -30 5 -13 31 -15 173 -13 l168 3 0 25 0
25 -168 3 c-142 2 -168 0 -173 -13z"/>
<path d="M918 4992 c-13 -16 -32 -56 -42 -90 -20 -63 -37 -79 -75 -67 -28 8
-33 47 -15 101 13 39 13 48 2 55 -7 5 -16 9 -19 9 -28 1 -53 -101 -38 -153 17
-62 85 -96 139 -67 21 11 60 74 60 97 0 8 7 30 16 49 12 24 23 34 40 34 45 0
58 -69 24 -132 -18 -34 -18 -38 -4 -53 13 -13 19 -13 32 -3 25 21 42 74 42
132 0 46 -4 59 -29 85 -40 43 -98 44 -133 3z"/>
<path d="M1037 4724 c-4 -4 -7 -47 -7 -96 l0 -88 -50 0 -50 0 0 80 c0 79 0 80
-25 80 -25 0 -25 -1 -25 -80 l0 -80 -50 0 -50 0 0 91 c0 88 -1 90 -22 87 -22
-3 -23 -6 -23 -118 l0 -115 173 -3 173 -2 -3 122 c-3 101 -6 123 -18 126 -9 1
-19 0 -23 -4z"/>
<path d="M8360 4380 l0 -70 165 0 165 0 0 70 0 70 -165 0 -165 0 0 -70z"/>
<path d="M737 4393 c-4 -3 -7 -39 -7 -80 0 -71 1 -73 24 -73 23 0 25 4 28 53
l3 52 97 3 c56 1 106 -2 118 -8 27 -15 35 -52 16 -87 -11 -23 -12 -33 -3 -42
32 -32 67 11 67 82 0 40 -5 53 -29 78 l-29 29 -140 0 c-76 0 -142 -3 -145 -7z"/>
<path d="M8358 4263 c-2 -5 -2 -36 0 -70 l4 -63 164 0 164 0 0 70 0 70 -164 0
c-91 0 -166 -3 -168 -7z"/>
</g>
</svg>
