<svg xmlns="http://www.w3.org/2000/svg" xmlns:xlink="http://www.w3.org/1999/xlink" width="40" zoomAndPan="magnify" viewBox="0 0 30 30.000001" height="40" preserveAspectRatio="xMidYMid meet" version="1.0"><defs><clipPath id="2584e5fbf0"><path d="M 0.484375 0 L 29.515625 0 L 29.515625 29.03125 L 0.484375 29.03125 Z M 0.484375 0 " clip-rule="nonzero"/></clipPath></defs><g clip-path="url(#2584e5fbf0)"><path fill="#010101" d="M 15 0 C 6.996094 0 0.484375 6.511719 0.484375 14.515625 C 0.484375 22.519531 6.996094 29.03125 15 29.03125 C 23.003906 29.03125 29.515625 22.519531 29.515625 14.515625 C 29.515625 6.511719 23.003906 0 15 0 Z M 15 27.097656 C 8.0625 27.097656 2.417969 21.453125 2.417969 14.515625 C 2.417969 7.578125 8.0625 1.933594 15 1.933594 C 21.9375 1.933594 27.582031 7.578125 27.582031 14.515625 C 27.582031 21.453125 21.9375 27.097656 15 27.097656 Z M 15 27.097656 " fill-opacity="1" fill-rule="nonzero"/></g><path fill="#010101" d="M 20.335938 7.9375 L 9.757812 7.9375 C 9.226562 7.9375 8.792969 8.371094 8.792969 8.90625 C 8.792969 9.4375 9.226562 9.871094 9.757812 9.871094 L 20.335938 9.871094 C 20.871094 9.871094 21.304688 9.4375 21.304688 8.90625 C 21.304688 8.371094 20.871094 7.9375 20.335938 7.9375 Z M 20.335938 7.9375 " fill-opacity="1" fill-rule="nonzero"/><path fill="#010101" d="M 20.335938 13.546875 L 9.757812 13.546875 C 9.226562 13.546875 8.792969 13.980469 8.792969 14.515625 C 8.792969 15.050781 9.226562 15.484375 9.757812 15.484375 L 20.335938 15.484375 C 20.871094 15.484375 21.304688 15.050781 21.304688 14.515625 C 21.304688 13.980469 20.871094 13.546875 20.335938 13.546875 Z M 20.335938 13.546875 " fill-opacity="1" fill-rule="nonzero"/><path fill="#010101" d="M 20.335938 19.160156 L 9.757812 19.160156 C 9.226562 19.160156 8.792969 19.59375 8.792969 20.128906 C 8.792969 20.660156 9.226562 21.09375 9.757812 21.09375 L 20.335938 21.09375 C 20.871094 21.09375 21.304688 20.660156 21.304688 20.128906 C 21.304688 19.59375 20.871094 19.160156 20.335938 19.160156 Z M 20.335938 19.160156 " fill-opacity="1" fill-rule="nonzero"/></svg>